<svg xmlns="http://www.w3.org/2000/svg" width="94.88" height="110" viewBox="0 0 94.88 110">
    <path d="M345.29,371.84l-77.83.12c.23,4.72,0,10,0,14.87v44.62c0,5.31-.59,9.08,1.75,13.22,4.91,8.73,13.56,7.2,22.44,7.2H321.1c8.65,0,17.76,1.53,22.44-7.2,2.33-4.25,1.75-7.91,1.75-13.22ZM293.75,353.9c-1.75.23-20.1,0-23.49,0-4,0-7.36-.59-9.81,2.12a6.4,6.4,0,0,0,.35,8.62c2.45,2.48,6.07,1.89,10.05,1.89h70.93c4.09,0,7.72.59,10.05-1.77,3.51-3.43,1.87-8.5-.93-9.92l-.82-.35H350c-1.75-.95-16.71-.59-19.16-.59-1.87,0-10.64.12-11.69,0-.58-17.23-24.89-14.52-25.36,0Zm6.78,0h11.8a5.9,5.9,0,1,0-11.8,0Zm8.18,29.51a2.62,2.62,0,0,0-4.56-.12c-.93,1.53-.46,43-.46,44.62,0,2.47-.59,6.49,2.57,6.72s2.8-3.54,2.8-6.25c0-1.66.47-43.56-.35-45Zm-26.64,1.77v46.27c0,4.13,5.37,4.25,5.37-.12,0-5.67.24-45.33-.11-46.86-.47-3.19-5.26-3.54-5.26.71Zm43.35,0v46.27c0,1.77.94,3.07,2.57,3.18,2,0,2.69-1.53,2.69-3.3V385.18c0-4.37-5.26-4.13-5.26,0Z" transform="translate(-258.95 -341.97)" fillRule="evenodd" fill="#f36"/>
</svg>